<?xml version="1.0" encoding="UTF-8"?>
<svg xmlns="http://www.w3.org/2000/svg" viewBox="0 0 175.216 175.552">
    <defs>
        <linearGradient id="b" x1="85.915" x2="86.535" y1="32.567" y2="137.092" gradientUnits="userSpaceOnUse">
            <stop offset="0" stop-color="#57d163"/>
            <stop offset="1" stop-color="#23b33a"/>
        </linearGradient>
    </defs>
    <path fill="url(#b)" d="M87.608 175.552c48.195 0 87.608-39.413 87.608-87.608C175.216 39.749 135.803.336 87.608.336 39.413.336 0 39.749 0 87.944c0 48.195 39.413 87.608 87.608 87.608z"/>
    <path fill="#fff" fill-rule="evenodd" d="M126.495 48.677C114.685 36.867 98.52 30.187 81.519 30.187c-34.594 0-62.773 28.179-62.773 62.773 0 11.063 2.883 21.883 8.381 31.453L18.73 156.866l33.053-8.662c9.227 5.035 19.626 7.697 30.246 7.697h.026c34.576 0 62.754-28.179 62.754-62.773 0-16.776-6.577-32.574-18.314-44.451zm-44.976 96.6h-.021c-9.37 0-18.559-2.518-26.608-7.267l-1.907-1.131-19.764 5.181 5.276-19.272-1.243-1.975c-5.242-8.33-8.012-17.996-8.012-27.853 0-28.829 23.474-52.303 52.321-52.303 13.975 0 27.116 5.449 37.006 15.339 9.89 9.89 15.339 23.031 15.339 37.006-.001 28.847-23.475 52.275-52.387 52.275zm28.693-39.158c-1.571-.785-9.299-4.589-10.742-5.112-1.442-.523-2.491-.785-3.539 0.785-1.048 1.571-4.065 5.112-4.98 6.16-0.916 1.048-1.832 1.179-3.403.393-1.571-.785-6.63-2.443-12.63-7.789-4.665-4.159-7.81-9.299-8.726-10.869-0.916-1.571-.098-2.419.688-3.201.706-.706 1.571-1.832 2.356-2.748.785-.916 1.048-1.571 1.571-2.619.523-1.048.261-1.963-.131-2.748s-3.539-8.529-4.849-11.671c-1.277-3.066-2.576-2.649-3.539-2.649-0.916 0-1.963-.131-3.012-.131s-2.748.393-4.195 1.963c-1.442 1.571-5.507 5.376-5.507 13.119s5.638 15.214 6.423 16.262c0.785 1.048 11.064 16.904 26.82 23.72 3.744 1.619 6.674 2.585 8.954 3.309 3.764 1.194 7.189.916 9.894.555 3.02-.448 9.299-3.798 10.61-7.465 1.309-3.666 1.309-6.815.916-7.465-0.393-.654-1.442-1.048-3.012-1.832z"/>
</svg>
